<svg width="28" height="28" viewBox="0 0 28 28" fill="none" xmlns="http://www.w3.org/2000/svg">
<g id="pepicons-pencil:ticket">
<g id="Group">
<path id="Vector" fill-rule="evenodd" clip-rule="evenodd" d="M2.1001 8.39999C2.1001 7.84303 2.32135 7.30889 2.71517 6.91506C3.109 6.52124 3.64314 6.29999 4.2001 6.29999H23.8001C24.3571 6.29999 24.8912 6.52124 25.285 6.91506C25.6788 7.30889 25.9001 7.84303 25.9001 8.39999V12.096C25.9001 12.4726 25.6747 12.81 25.3289 12.9542C25.1227 13.0403 24.9466 13.1855 24.8228 13.3714C24.6989 13.5574 24.6328 13.7759 24.6328 13.9993C24.6328 14.2227 24.6989 14.4412 24.8228 14.6271C24.9466 14.8131 25.1227 14.9583 25.3289 15.0444C25.4982 15.1151 25.6427 15.2343 25.7444 15.3871C25.846 15.5398 25.9002 15.7191 25.9001 15.9026V19.6C25.9001 20.1569 25.6788 20.6911 25.285 21.0849C24.8912 21.4787 24.3571 21.7 23.8001 21.7H4.2001C3.64314 21.7 3.109 21.4787 2.71517 21.0849C2.32135 20.6911 2.1001 20.1569 2.1001 19.6V15.904C2.1001 15.5274 2.3255 15.19 2.6713 15.0444C2.87747 14.9583 3.05357 14.8131 3.17743 14.6271C3.30129 14.4412 3.36738 14.2227 3.36738 13.9993C3.36738 13.7759 3.30129 13.5574 3.17743 13.3714C3.05357 13.1855 2.87747 13.0403 2.6713 12.9542C2.50225 12.8836 2.35785 12.7645 2.25622 12.6121C2.1546 12.4597 2.10028 12.2806 2.1001 12.0974V8.39999ZM4.2001 7.69999C4.01445 7.69999 3.8364 7.77374 3.70512 7.90501C3.57385 8.03629 3.5001 8.21434 3.5001 8.39999V11.8034C5.1913 12.7596 5.1913 15.2404 3.5001 16.1966V19.6C3.5001 19.7856 3.57385 19.9637 3.70512 20.095C3.8364 20.2262 4.01445 20.3 4.2001 20.3H23.8001C23.9857 20.3 24.1638 20.2262 24.2951 20.095C24.4263 19.9637 24.5001 19.7856 24.5001 19.6V16.1966C22.8089 15.2404 22.8089 12.7596 24.5001 11.8034V8.39999C24.5001 8.21434 24.4263 8.03629 24.2951 7.90501C24.1638 7.77374 23.9857 7.69999 23.8001 7.69999H4.2001Z" fill="white"/>
<path id="Vector_2" fill-rule="evenodd" clip-rule="evenodd" d="M17.5002 18.55C17.7787 18.55 18.0457 18.6606 18.2427 18.8575C18.4396 19.0544 18.5502 19.3215 18.5502 19.6V20.3C18.5502 20.5784 18.4396 20.8455 18.2427 21.0424C18.0457 21.2393 17.7787 21.35 17.5002 21.35C17.2217 21.35 16.9546 21.2393 16.7577 21.0424C16.5608 20.8455 16.4502 20.5784 16.4502 20.3V19.6C16.4502 19.3215 16.5608 19.0544 16.7577 18.8575C16.9546 18.6606 17.2217 18.55 17.5002 18.55ZM17.5002 6.64996C17.7787 6.64996 18.0457 6.76059 18.2427 6.9575C18.4396 7.15441 18.5502 7.42149 18.5502 7.69996V8.39996C18.5502 8.67844 18.4396 8.94551 18.2427 9.14243C18.0457 9.33934 17.7787 9.44996 17.5002 9.44996C17.2217 9.44996 16.9546 9.33934 16.7577 9.14243C16.5608 8.94551 16.4502 8.67844 16.4502 8.39996V7.69996C16.4502 7.42149 16.5608 7.15441 16.7577 6.9575C16.9546 6.76059 17.2217 6.64996 17.5002 6.64996ZM17.5002 10.5C17.7787 10.5 18.0457 10.6106 18.2427 10.8075C18.4396 11.0044 18.5502 11.2715 18.5502 11.55V12.25C18.5502 12.5284 18.4396 12.7955 18.2427 12.9924C18.0457 13.1893 17.7787 13.3 17.5002 13.3C17.2217 13.3 16.9546 13.1893 16.7577 12.9924C16.5608 12.7955 16.4502 12.5284 16.4502 12.25V11.55C16.4502 11.2715 16.5608 11.0044 16.7577 10.8075C16.9546 10.6106 17.2217 10.5 17.5002 10.5ZM17.5002 14.7C17.7787 14.7 18.0457 14.8106 18.2427 15.0075C18.4396 15.2044 18.5502 15.4715 18.5502 15.75V16.45C18.5502 16.7284 18.4396 16.9955 18.2427 17.1924C18.0457 17.3893 17.7787 17.5 17.5002 17.5C17.2217 17.5 16.9546 17.3893 16.7577 17.1924C16.5608 16.9955 16.4502 16.7284 16.4502 16.45V15.75C16.4502 15.4715 16.5608 15.2044 16.7577 15.0075C16.9546 14.8106 17.2217 14.7 17.5002 14.7Z" fill="white"/>
</g>
</g>
</svg>
